<?xml version="1.0" standalone="no"?>
<!DOCTYPE svg PUBLIC "-//W3C//DTD SVG 20010904//EN"
 "http://www.w3.org/TR/2001/REC-SVG-20010904/DTD/svg10.dtd">
<svg version="1.0" xmlns="http://www.w3.org/2000/svg"
 width="229.000000pt" height="229.000000pt" viewBox="0 0 229.000000 229.000000"
 preserveAspectRatio="xMidYMid meet">
<metadata>
Created by potrace 1.11, written by Peter Selinger 2001-2013
</metadata>
<g transform="translate(0.000000,229.000000) scale(0.100000,-0.100000)"
fill="#000000" stroke="none">
<path d="M980 2105 c-36 -7 -74 -15 -85 -18 -11 -3 -33 -8 -48 -12 -30 -8 -93
-82 -103 -121 -3 -13 -37 -42 -87 -75 -76 -49 -227 -189 -227 -210 0 -5 -4 -9
-9 -9 -6 0 -6 13 0 33 5 17 12 45 15 61 2 15 11 41 19 57 8 15 15 31 15 35 0
15 -65 -53 -120 -128 -77 -102 -133 -220 -168 -353 -62 -233 -30 -500 84 -713
124 -230 325 -400 569 -481 122 -40 139 -43 297 -46 136 -3 239 11 340 47 40
14 91 71 109 122 8 22 30 44 71 71 66 43 155 125 213 198 21 26 39 46 41 44 8
-8 -29 -136 -51 -177 l-25 -45 56 60 c245 265 327 653 210 998 -115 338 -411
594 -766 661 -86 17 -267 17 -350 1z"/>
</g>
</svg>
